<mxfile host="app.diagrams.net" agent="Mozilla/5.0 (Windows NT 10.0; Win64; x64) AppleWebKit/537.36 (KHTML, like Gecko) Chrome/134.0.0.0 Safari/537.36" version="26.1.3">
  <diagram name="Seite-1" id="GT-5gQv_Q-ThfG7z6ssx">
    <mxGraphModel dx="2261" dy="1941" grid="1" gridSize="10" guides="1" tooltips="1" connect="1" arrows="1" fold="1" page="1" pageScale="1" pageWidth="827" pageHeight="1169" math="0" shadow="0">
      <root>
        <mxCell id="0" />
        <mxCell id="1" parent="0" />
        <mxCell id="EsXm5lX58p6gVxCCwAnx-7" value="" style="ellipse;whiteSpace=wrap;html=1;aspect=fixed;fillColor=none;strokeWidth=5;" vertex="1" parent="1">
          <mxGeometry width="100" height="100" as="geometry" />
        </mxCell>
        <mxCell id="EsXm5lX58p6gVxCCwAnx-2" value="" style="shape=image;imageAspect=0;aspect=fixed;verticalLabelPosition=bottom;verticalAlign=top;image=data:image/png,iVBORw0KGgoAAAANSUhEUgAAAacAAAJdCAYAAACWDrh6AAAACXBIWXMAAC4jAAAuIwF4pT92AAAgAElEQVR4nO3d63Fcx9Uu4NWn/FvyiYDMwPwiwDgC8kQgKgJREZiOwFAEGkZAKAINIhAYwQdGYJEJ7PMDTQokcZnL3rtvz1PlKgsWB+u7lF5395q10jRNAbCGlNLTiHi50MdfRcSfC332vb9zmqa1f+cQknAC1pBS+nvcBMiT0rU07kPc/O9xbX+u9Ht30zTthBOwuBxMu4j4R+FSaMP//J/SFQBDOA/BxH4+TNN0JZyARaWUXkfED6XroAnvI2IT4c0JWFBK6WVE/Fq6DprwLiI2nxpMhBOwiJTSs4j4o3QdNOGLYIqIcK0HzC63jO/KVkEjvgmmCOEEzCx35l1ExPela6F6dwZThHAC5ncROvN43G9xTzBFRPxt5WKAjqWUthFxVroOqvdmmqaXD/0NTk7ALFJKr0LLOI97NJgidOsBM0gpvYiIt6XroHp7BVOEcAJOlFvGLyPiu9K1ULW9gylCOAEnyJ1516Ezj4f9PE3T+SF/QEMEcJRbw1wFEw/5cZqm7aF/SEMEcCzDXHnMUcEUIZyAI6SUzkNnHg87OpgivDkBBzLMlT2cFEwRwgk4gGGuPOJjRJxN03TyxlzXesBecjDtStdBtT7ETMEUIZyAPeTOvG3ozONuH+JmTt4swRQhnID9GObKfWYPpgjhBDzCMFce8D4WCKYIX8IFHmCYKw+4dxfTHHTrAXfSMs4DFg2mCOEE3MEwVx6weDBFCCfgK4a58oBVgilCQwRwi2GuPODBtepz0xAB3LYNLeN866BdTHNwcgIi4vMw1+el66A6qwdThDcnIHTmca8iwRQhnGB4KaVNRPxeug6qUyyYIlzrwdByy/hF6Tqozs8lgylCQwQMyzBX7nHyLqY5uNaDQaWUrkJnHl+qIpgiXOvBkPIwV8HEbdUEU4RwguEY5sodqgqmCNd6MBQt43xltrXqcxNOMAjDXPnKIksC5yKcYAAppacRcRU687hRdTBFeHOC7uWW8YsQTNyoPpgihBOMYBs687ix2Fr1ufkSLnQst4wb5krEiruY5uDkBJ3KnXlaxoloLJgiNERAlwxz5ZbmginCyQm6Y5grtzQZTBHCCbqiM49bVl2rPjcNEdCXXUQ8KV0ExRXdxTQHJyfohGGuZM0HU4Rwgi6klF6Hzjw6CaYI3XrQPMNcyboJpgjhBE3LnXl/lK6D4v49TdPr0kXMSUMENCoPc92VrYIKVLeLaQ7enKBBWsbJugymCOEErboInXmj6zaYIoQTNCe3jJ+VroOiug6mCG9O0BTDXIf3MSKeT9O0K13I0nTrQSNSSi8i4m3pOiimiSWBcxFO0IDcMn4ZEd+VroUihgqmCOEE1cudeVdhZt6ohgumCA0RULUcTLsQTKMaMpgihBPU7jy0jI/qXUQ8HTGYIoQTVMsw16E1uyRwLt6coEKGuQ5t+GCKEE5QHcNchyaYMtd6UJEcTLvSdVDEZQimz4QTVCJ35m3DMNcRvZmmSTDdIpygHoa5jqmrJYFzEU5QAcNchyWY7iGcoLCU0qvQMj4iwfQA4QQF5WGu/yldB6v7t2B6mFZyKMQw12F1v4tpDsIJCsidedehM280gmlPrvVgZbeGuQqmsQimAwgnWJ9hruMRTAeyph1WlFI6D515IxlmrfrcvDnBSgxzHc6wu5jmIJxgBYa5DkcwncibEyzMMNfhCKYZCCdYkGGuwxFMM3GtBwtKKV2FzrxR2MU0IycnWEge5iqYxiCYZiacYAGGuQ5FMC3AtR7MTMv4UATTQoQTzMgw16FcRsQLwbQM4QQzMcx1KHYxLcybE8zAMNehCKYVCCeYxzZ05o1AMK1EOMGJ8jDX56XrYHGCaUXCCU6QO/N+Kl0Hi7NWfWUaIuBIKaVNRPxeug4WZxdTAU5OcITcMn5Rug4WJ5gKEU5wIMNchyGYCnKtBwcyzHUIgqkwa9rhAIa5ds9a9UoIJ9hTSul1GObas48RcWYXUx1c68EeDHPtniWBlRFO8AjDXLsnmCoknOABKaWnEXEVOvN6JZgqpZUc7pFbxi9CMPXqXUQ8FUx1Ek5wv23ozOuVJYGVE05wh9wybphrnwRTA4QTfCV35mkZ75NgaoSGCLjFMNeuWaveECcnyAxz7dqbaZqcmBri5ATxuTPvKiKelK6F2VkS2CAnJ7ixC8HUI8HUKOHE8Axz7ZZgaphwYmiGuXbLWvXGeXNiWIa5dssupg4IJ4aUO/P+KF0HsxNMnXCtx3DyMNdd2SpYgGDqiHBiKIa5dkswdcYmXEZzETrzemKteqeEE8PILeNnpetgNtaqd8y1HkMwzLU7H0IwdU23Ht1LKb2IiLel62A2ttcOQDjRtdwyfhkR35WuhVkIpkEIJ7plmGt37GIaiDcnupSDaReCqReCaTDCiV6dh5bxXgimAQknupNSOg+deb0QTIPy5kRXDHPtimAamHCiG4a5dsUupsG51qMLOZh2petgFoIJ4UT7cmfeNgxz7YFgIiKEE30wzLUPgonPhBNNM8y1G78IJm4zlZxmpZRehZbxHtjFxDd069Ekw1y7IZi4k3CiOYa5dkMwcS/hRFNyZ9516MxrnWDiQd6caMatYa6CqV0fI+KHaZouShdC3YQTLTHMtW3WqrM3reQ0wTDX5lmrzkG8OVE9w1ybZ3stBxNOVC2ltImI30vXwdEEE0dxrUe1csu4h/N2vYuIZ4KJY2iIoEqGuTbPLiZO4lqPKqWUrkJnXqsEEydzrUd18jBXwdQmwcQshBNVMcy1aYKJ2QgnqpFbxv9Tug6O8maapmeCibl4c6IKhrk2zZJAZiecKM4w16YJJhbhWo+iDHNtmmBiMcKJ0rahM69F1qqzKF/CpZg8zPV56To4mF1MLM6bE0UY5toswcQqhBOrM8y1WYKJ1XhzYlWGuTZLMLEqJydWkzvzriLiSela2Ju16hShIYI17UIwtcRadYpxrccqDHNtjrXqFCWcWFxK6XUY5toS22spzpsTi9Iy3hzBRBWEE4sxzLU57yLixTRN16ULAeHEIlJKT+OmM8/MvDbYxURVvDkxu9wyfhGCqRWCieoIJ5awDZ15rRBMVEk4MavcMm6YaxsEE9USTswmd+ZpGW+DtepUTUMEszDMtSmWBFI9JydOZphrUwQTTXBy4iSGuTZFMNEMJyeOloNpF4KpBdaq0xRTyTnFeWgZb4FdTDTHyYmjGObaDMFEk7w5cTDDXJshmGiWcOIguTPvj9J18CjBRNO8ObG3PMx1V7YKHmGtOl0QTuzFMNcmWKtONzREsK+L0JlXM2vV6Ypw4lF5mOtZ6Tq4l+21dEc48SDDXKsnmOiScOJeKaUXoWW8Zu8i4plgokdayblTbhm/jIjvStfCnexiomvCiW8Y5lo9wUT3XOvxBcNcqyeYGIJw4muGudZLMDEM4cRnKaXz0JlXK2vVGYo3JyLCMNfKWRLIcIQThrnWTTAxJNd6g8vBtCtdB3cSTAxLOA0sd+ZtwzDXGlmrztBMJR+bYa51souJ4Tk5Dcow12oJJgjhNKSU0qvQMl4jwQSZbr3B5GGub0vXwTcEE9winAZimGuVrFWHOwinQeTOvOvQmVcTa9XhHt6cBnBrmKtgqoe16vAA4TSGbWgZr4nttfAI4dS5PMz1eek6+EwwwR6EU8fyMNefStfBZ59WXggmeISGiE6llDYR8XvpOvjMLiY4gJNTh3LLuNbkeggmOJBw6oxhrtURTHAE13qdSSldhc68WggmOJKTU0fyMFfBVIc3IZjgaFZmdMIw16pYEggncq3Xgdwy/mvpOogIwQSzEE6NM8y1KoIJZiKcGmaYa1UEE8xIQ0SjDHOtyo+CCeYlnNq1DZ15NbAkEBYgnBqUW8YNcy1PMMFChFNjcmeelvHyBBMsSENEQwxzrcLHiPhJMMGyfAm3EYa5VsFadViJk1MDcmfeVUQ8KV3LwCwJhBV5c2rDLgRTSYIJViacKmeYa3GCCQoQThVLKb0OnXklWasOhXhzqpRhrsXZxQQFCacKGeZanGCCwoRTZVJKT+OmM8/MvDIEE1TAm1NFcsv4RQimUgQTVMLJqSIppYswM68m7yLi66C62vdnQg6OJ5wqkVvGdeb17a6wu87/evRn0zR9/TPolnCqgM48jvQ+vg2xP+PmJPfoz7TIUzPhVFhK6UVEvC1dB8TNF473CbaIm6klX5im6ZufwbGEU0FaxhnA5R0/293xM+92fEE4FWKYKxxl3yaV6/Bu1zThVEAOpl2YmQel3fVud73nz7zbLUg4FaAzD7q177vdnW953u3+IpxWloe5/qt0HUAz9n23++ZnLYedcFqRlnGggPdxM/nkunQhhxBOK8mdeX+UrgMY0v9trfPRbL0V5GGuu7JVAIP6sbVgihBOizPMFSjox2matqWLOIZwWt5FaBkH1vdLq8EUIZwWlVvGz0rXAQznzTRNr0oXcQrhtJDcmee7TMDa3kzT9LJ0EafSrbcAw1yBQroIpgjhNDvDXIFCLqdp2pQuYi7CaUa5M+86dOYB63oXN1+0ba5l/D7enGZya5irYALW1F0wRQinOZ2HlnFgXV0GU4RwmkVK6Tx05gHr+jQzr7tgihBOJ8st4z+VrgMYyoeIeNFrMEVoiDiJYa5AAR/i5sTU9aJDJ6cj5WDala4DGMrHGCCYIoTTUXJn3jZ05gHr+RgRZyMEU4RwOpZhrsDafholmCKE08EMcwUKaHb1xbGE0wFSSq9CyziwruGCKUK33t4McwUKGDKYIpyc9pI7896UrgMYStPLAk/l5PQIw1yBArpZfXEsJ6cHGOYKFDB8MEUIp8dsQ8s4sB7BlAmne+Rhrs9L1wEM41Iw/cWb0x3yMNdfS9cBDKPb1RfHEk5fSSltIuL30nUAwxBMd3Ctd0tuGb8oXQcwDMF0Dyen7FZnngYIYA3vI+KZYLqbk9NfdiGYgHV0vyzwVMIpPg9zFUzAGoZYFniq4cPJMFdgRcMsCzzV0G9OWsaBFQ21LPBUw56ccmfeL6XrAIYx1LLAUw15ckopPY2IqzAzD1jHsKsvjjXcySm3jF+EYALWIZiOMFw4hWGuwHoE05GGCqfcMm6YK7CGoZcFnmqYNyedecCKrL440RDhZJgrsCLBNIPur/UMcwVWJJhm0vXJKXfmXUXEk9K1AN27nKZpU7qIXvR+ctqFYAKW9y4iXpQuoifdhpNhrsBK7GRaQJfhlFJ6HYa5AssTTAvp7s1Jyziwkg8R8VQwLaOrk5NhrsBKPu1kEkwL6ebkZJgrsBLLAlfQxcnJMFdgJZYFrqSLk1NKaRcRZ6XrALr3P4JpHc2fnHLLuGAClvajYFpP0+GUO/O0jANLs/piZc1e66WUXkTE29J1AN0TTAW0HE7XYTQRsCzBVEjL13rXpQsAuvZGMJXT7Mnpk/z9pqe3fvQsIv7+wF9rngAeY/VFYc2H0yny96Oe3frR03g46AQb9E8wVWDocDqFYIMuCaZKCKcCBBtU6d00Tc8e/9tYg3BqjGCDRVh9URnhNJiU0ubWX+4TdOYV0jvBVCHhxN4EGx0STJUSTqxCsFEhywIrJpyonmBjAXYyVU440bVHgu2uoDMSq3+CqQHCCe6RUvq683Fz698LtjZ9jIgzwVQ/4QQLuBVsLyLip8Ll8BfLAhvR8uBXqFb+B+CfEfFj6Vr4zLLAhjg5wQLyl6WvwlVfLay+aIyTEyzjIgRTLQRTg4QTzCyldB7GRtVCMDXKtR7MKKX0MiJ+LV0HEWHCeNOEE8wkd+hdRsR3pWtBMLVOOMEMNEBURTB1wJsTzEMDRB0EUyeEE5xIA0Q13gmmfggnOEFugDABorx38eV4KRrnzQmOpAGiGnYydUg4wRE0QFRDMHVKOMERUkpXEfGP0nUMzrLAjnlzggOllLYhmEr7tJNJMHVKOMEBcgPED6XrGJxlgQNwrQd7yg0Qf5SuY3CWBQ5COMEecgPEdUR8X7iU0VkWOAjXerCfXQim0iwLHIhwgkdogKiC1ReDEU7wAA0QVRBMA/LmBPfQAFEFwTQo4QR30ABRBRPGB+ZaD+62C8FUkmAanHCCr2iAKE4wIZzgNg0QxQkmIsKbE3yWUtpExO+l6xiYCeN8JpwgIlJKT+NmBYZ3pjIEE19wrcfwcmfeRQimUgQT3xBOEHEeGiBKEUzcSTgxtJTSq9AAUcqHiHghmLiLNyeGpQGiKDuZeJBwYkgaIIoSTDzKtR7D0QBR1McQTOxBODEiDRDlPBdM7EM4MRQNEEX9OE3TrnQRtMGbE8PQAFGU1RccxMmJIeTdTBel6xiUYOJgwonu5QaIbWiAKOFnwcQxhBMj2IYGiBLeTNN0XroI2iSc6FpK6XVEPC9dx4CsvuAkGiLoVkrpRUS8LV3HgAQTJxNOdCk3QOzCO9PaBBOzEE50JzdA7MI709pMGGc23pzo0TYE09oEE7MSTnRFA0QRgonZudajGxogihBMLEI40YXcAHEZEd+VrmUgHyLi2TRN16ULoT+u9WjerQkQgmk9n3YyXZcuhD4JJ3pwERog1mRZIIsTTjQtpXQeEWel6xiIZYGswpsTzUopvYyIX0vXMZh/2snEGpycaFJugPildB2DsSyQ1Tg50ZzcAHEVEU9K1zIQO5lYlZMTLboIwbQmwcTqhBNN0QCxOssCKcK1Hs3QALE6E8YpRjjRBBMgVieYKEo4UT0NEKsTTBTnzYkWaIBYj2CiCsKJqqWUtqEBYi3vIuJV6SIgQjhRsdwA8UPpOgZh9QVV8eZElXIDxB+l6xiEYKI6wonq5AaI64j4vnApIxBMVMm1HjXahWBaw4eIeCGYqJFwoiq5AcJupuVZFkjVhBPV0ACxGssCqZ43J6qgAWI1HyPiTDBRO+FEcRogVmVZIE1wrUcNdiGY1mBZIM0QThSlAWI1djLRFOFEMRogViOYaI43J4rQALGaf0/T9Lp0EXAo4cTqUkpP42YFhnemZZkwTrNc67Gq3Jl3EYJpaYKJpgkn1nYeGiCWJphonnBiNSmlV6EBYmm/CSZ64M2JVaSUNhHxe+k6OmfCON0QTixOA8QqBBNdca3HojRArEIw0R3hxNI0QCxLMNEl4cRiNEAs7kNEvBRM9MibE4vQALE4O5nomnBidhogFieY6J5rPWalAWJxH0MwMQDhxNy2oQFiST8IJkYgnJhNSul1RDwvXUfHfpym6aJ0EbAGb07MIqX0IiLelq6jY3YyMRThxMnybqZdeGdaimBiOK71OElugNiGYFrKvwUTI3Jy4iQppYvwzrQUqy8YlpMTR9MAsSjBxNCcnDiKBohFCSaGJ5w4WG6AuIyI70rX0qHfpml6UboIKE04cZDcALELX7RdggnjkHlz4lDbEExLEExwi3Bibyml89AAsQTBBF9xrcdeUkovI+LX0nV0SDDBHYQTj9IAsRirL+AewokH5QaIq4h4UrqWzggmeIA3Jx5zEYJpbnYywSOEE/fKDRBnpevozMeIOBNM8DDhxJ1yA8RPpevokGWBsAdvTnxDA8RirL6APQknvqABYjGCCQ7gWo+vaYCYn2CCAwknPtMAsQjLAuEIrvWICBMgFmL1BRxJOKEBYhmCCU4gnAaXGyCuI+L7wqX0RDDBibw5sQvBNKffBBOcTjgNLKW0DbuZ5vQuIl6WLgJ6IJwGlRsgfihdR0esvoAZeXMaUG6A+KN0HR0RTDAz4TQYDRCzE0ywANd649mFYJrLh4h4KZhgfsJpIBogZmVZICxIOA1CA8SsLAuEhXlzGoAGiFlZFggrcHLqXG6A2JWuoyM/CSZYnnDq2K1g0gAxD6svYCXCqW/noQFiLoIJViScOpVSehUaIOYimGBlGiI6lFLaRMTvpevoxC/TNL0qXQSMRjh1JqX0NCKuwjvTHKy+gEJc63UkN0BchGCag2CCgoRTXzRAzEMwQWGu9TqRGyD+U7qODlxO07QpXQSMTjh1QAPEbEwYh0oIp8ZpgJiNYIKKeHNqmAaI2QgmqIxwapsGiNO9D8EE1RFOjUopvQ4TIE71ISJeCCaojzenBqWUXkTE29J1NM6yQKiYcGpM3s20C+9Mp7CTCSrnWq8huQFiG4LpFIIJGiCc2rINDRCnsiwQGiCcGpEbIJ6XrqNxVl9AI7w5NUADxCwEEzREOFUuN0BcRsR3pWtpmGCCxrjWq9itBgjBdLxfBBO0RzjVbRsaIE7xxhZbaJNwqpQGiJPZyQQN8+ZUoZTSy4j4tXQdDRNM0DjhVBkNECezLBA6IJwqkhsgriLiSelaGmX1BXTCm1NdLkIwHUswQUeEUyVSSucRcVa6jkYJJuiMa70KaIA4yfuIeCaYoC/CqTANECexkwk6JZwK0gBxEsEEHfPmVJYGiON8DMEEXRNOhWiAOJplgTAA4VRAboD4qXQdjbIsEAbgzWllGiBOYvUFDKK6k1NK6WluFOhO/p/rIgTTMQQTDKSqcMr/8H4XEe/zCaM3u9AAcQzBBIOpKpwiYhM3p4rv4maXUTdSStuwm+kYlgXCgGoMp0/+kVLqYlFcboD4oXQdDbIsEAZVVUNESmkXX7ZXf4ib0TTXRQqaQb6e/KN0HQ2ykwkGVls43VXMb9M0vVi9mBnkN7TriPi+cCmtEUwwuGqu9VJKm3v+o+cP/Ge124VgOtQ7wQRUE07x5XvT17attZdrgDjKu3j4/w+AQdQUTg+1jj+JiGYexjVAHMVOJuCzat6cUkp/xuNXYP9T++gaDRBHEUzAF6o4OeV/oO/zNnO+dC2nyFePu9J1NObT6gvBBHxWRTjFw1d6t53lK7Na7UIDxCEEE3CnWsJpc8Dfe15jc4QGiINZFgjcq8Vw+j4qu97Lkyw0QOzPskDgQcUbIlJKTyPif4/4o/+cpmk3azFHyN/B+r10HY2pvrEFKKuGk9Ox08e3cxZxjBysF4XLaM2Pggl4TA3htDnyzz1JKb2esY6D3NrNpAFif1ZfAHtpOZwiIn7Op5cSzkMDxCEEE7C3Gt6cTi3gcpqmzRy17Cs3QPxnzd/ZOMEEHKToyWmmga5nKaXVppbnmgXT/t4IJuBQpa/1NjN9ziqDYTVAHMzqC+AovYTT9xHxeqbPupMGiIMJJuBoRd+c9hz2eojFvvuUJ0D4ou1+BBNwkmLhtND07nfTNB37val7aYA4yCL/NwDGUvJab7PAZ/4jB8lscrOFYNqPZYHALHoLp4iI13N99ymf7rZzfNYA7GQCZlMynJa6+pllMGxugNiGBoh9CCZgVkXenE4Y9nqI/zdN09Ft3ymli4h4PmM9vfoQEU8FEzCnUienzQq/4+i9T3lmn2B6nGWBwCJKhdMa3VxPIuLg5ojcAPGv+cvpjmWBwGJKXetdxXpDU/feHZQbIHbhnekxHyPiTDABS1k9nPJV239X/JV7DYbNde3CpPF9WBYILKrEtd7aX9A82/O7T9sQTPuwLBBYXIlw2hT4na8fao7QALE3qy+AVYwSTvd+90kDxN4EE7CaEm9OJbcbfjEYNjdAXEbEd8UqaoNgAla16slppuWCp9h++je3VmAIpodZFgisbu1rvdLTqp/k96WIm2B6UrCWFlh9ARTxt5V/32bl33eXf+XrvLPShVROMAHFrPrmtMByQZYhmICiVgunlYa9cjrLAoHi1nxz2qz4uziOZYFAFYQTn9jJBFRDOBEhmIDKrPLmVGDYK/uzLBCozlonp81Kv4fDWBYIVEk4jcuyQKBaa4WT1uS6fAzBBFRsrTenksNe+ZZlgUDVFj85VTDslS9ZFghUb41rvc0Kv4P9WH0BNGGNcPLeVAfBBDRj8Tcnw16r8PM0TXduAgao0aInp7yaQjCV9UYwAa1Z+lpvs/Dn8zCrL4AmLR1O3pvKEUxAs5yc+iSYgKYt1hBhuWAxJowDzVvy5ORKb32CCejCkuG0WfCz+ZZgArohnPogmICuLPnmZNjrOj5ExLNpmq5LFwIwl0VOToa9rubTTqbr0oUAzGmpa73NQp/LXywLBLolnNpkWSDQtUXenLw3Le6f0zTtShcBsJTZT0552CvL+VEwAb1b4lpvs8BncsNOJmAIwqkdggkYxhLh5Fpvfj8LJmAkszZEGPa6CBPGgeHMfXLazPx5oxNMwJDmDidXevMRTMCwnJzqJJiAoc325pRS+ntE/HeWDxvb+7gZ5GrCODCsOU9Omxk/a2RPIuIqpXTuC83AqOYMJ/8gnc+TiPgpIv5IKV0LKmA0c17r7SLibJYP4z7vI+IiIraGvgI9mzOcDHtd16egOrfPCejNLOGUlwv+fvIHcax3EbGNiAtBBfRgrjcn7yFl/SMi/hMR/5tSukopvcrTOgCaNNfJ6SIinp9eDjNzogKaNFc4/RkR359eDgsSVEAzTg4nw16bJKiAqs0RTi8j4tdZqqGE3+Km6+/CVAqgFnOE0zYifpilGkoTVEAV5gin67iZaEBfBBVQzEnhZNjrMAQVsKpTw+lFRLydrxwaIKiAxZ36JdzNHEXQlOdx0wDz35TSNv8XFIBZnRpOJkOM7YeIeJtS+jOl9Kp0MUA/Tr3WM+yVTz5M0/T30kUAfTj65JSHvULEzZd6Xe8Bs/nbCX92M1cRNOtN3OyW2pUuBOjLKeHkvWlMHyLiPG5C6bpwLUCnjn5zMux1OO/iZrHhtnQhQP+OOjmllJ6FYBqFqztgdcde623mLILquLoDijo2nLw39el9RLwO0x+AwpyciLgZSXTu6g6oxcHhlJcLmkLevg9xs3Dw3NUdUJtjTk6u9Nrm6g6o3jHhtJm7CFbh6g5ohnDq24e4WW/x2tUd0JKDvoRruWAz3sdfreCu7oDmHHpy8t5Ut8u4ubq7KF0IwCkODafNEkVwEld3QHeEU7tc3QHdOvTNyXLB8i7jJpC2pQsBWMreJ6c87JVy3sTNe9JV6UIAlnbItd5mqSK41/v4a4qDqztgGMKpTq7ugKEdEi35nK4AAAHxSURBVE6u9Zbn6g4g9gwnw14X9Wl3kqs7gGzfk9NmySIGZe05wD2E0/qsPQd4xL7h5L3pNNaeAxzg0S/hGvZ6Eld3AEfY5+S0WbqIDrm6AzjBPuHkSm8/1p4DzMTJ6XTWngPMbJ83J8Ne72btOcBCHjw5pZQ2K9XRCld3ACt47FrPe9MNV3cAK3osnDZrFFGxy7jZMLsrXQjASB58c0op/RkR369XThWsPQco7N6TU14uOFIwWXsOUImHrvVGeW+6jJsGh4vShQBw46Fw2qxVRAGu7gAqNlo4uboDaMCdDREdDnu19hygIfednDZrFrEga88BGtRjOL2Pv6Y4uLoDaNB94dRip56rO4BO3Pfm1NKwV1d3AJ355uTUyLBXa88BOnbXtd5m7SIOYO05wABaCSdrzwEG8s2bU0XDXl3dAQzqi5NTJcNeXd0BDO7ra71NiSIya88BiIhvw2nt7zdZew7AN0qdnKw9B+Ben8MppfQ0Ip4s/Ptc3QHwqNsnp6Wu9FzdAXCQ2+G0mfmzXd0BcJQlwsnacwBOkqZpmmO5oLXnAMzm08np2Pcma88BmN2ncNoc+Odc3QGwmEPCydUdAKv49Ob00HJBa88BWNXf8rDXu1h7DkARf4uIv3/1M2vPASgqxU04vYqIP0PXHQAV+P+ayhAt7zBNMQAAAABJRU5ErkJggg==;rotation=22;" vertex="1" parent="1">
          <mxGeometry x="47" y="46.73" width="30.61" height="43.73" as="geometry" />
        </mxCell>
        <mxCell id="EsXm5lX58p6gVxCCwAnx-1" value="" style="shape=image;imageAspect=0;aspect=fixed;verticalLabelPosition=bottom;verticalAlign=top;image=data:image/png,iVBORw0KGgoAAAANSUhEUgAAAFIAAABICAYAAABlYaJmAAAAAXNSR0IArs4c6QAAAZdJREFUeF7tnDEOwjAQBDcVFHyPkoaPAB+hoeR7FFCBEgURBV/sWIkj5YY2Piwte5m1ka7S8OfUPr5E1nUfu6ypEDJqkSRjIGRURyFkQKMkUXp1STU4soAjr5IO7T43Scf4nnJbYzmyFmQvadeK95B0j4jpusYS8ilp03PgS9J2wJWuaywh34ZgQ+9U1zUIabfYKGN8hawRf06ACUukoPlw5MSO7H/dKFu3xa5rcCSO/FNg0USBI3EkjuwqsBpA0dq0Nq1Na8s4HhHIbWFWA4FSPzKwATbABtgAm8YD3EcGXoeTXXQAG2ADbIANsAE2s5/UgA2wATbABtgAG2ATYMHsouTcYUJtqA21oTbUhtqzAwrYABtgA2yADbABNhwRfwpM9pdnzhm4VA3xh/hD/CH+EH+IP8Qf4g/xp1Fg9lYole9K7UOOXChH2tv6fdKYEUcu5EgX5+ac9ypzf2xHjppjxCQqW8hRk7WGWtXtnLOOtskaMK0vnjYYexjQKEmUXl1SDY7EkWkjW3PclVODIws5Mr4NKxoFPjav0FjIbjOzAAAAAElFTkSuQmCC;" vertex="1" parent="1">
          <mxGeometry x="19" y="16" width="33" height="28.97" as="geometry" />
        </mxCell>
        <mxCell id="EsXm5lX58p6gVxCCwAnx-5" value="" style="endArrow=none;html=1;rounded=0;strokeWidth=5;" edge="1" parent="1">
          <mxGeometry width="50" height="50" relative="1" as="geometry">
            <mxPoint x="12" y="69" as="sourcePoint" />
            <mxPoint x="88" y="29" as="targetPoint" />
          </mxGeometry>
        </mxCell>
      </root>
    </mxGraphModel>
  </diagram>
</mxfile>
